<svg width="189" height="64" viewBox="0 0 189 64" fill="none" xmlns="http://www.w3.org/2000/svg">
<rect width="189" height="64" rx="4" fill="#002B80"/>
<path d="M8 12C8 9.79086 9.79086 8 12 8H52C54.2091 8 56 9.79086 56 12V52C56 54.2091 54.2091 56 52 56H12C9.79086 56 8 54.2091 8 52V12Z" fill="#0056FF"/>
<path d="M24.7129 21C25.6196 20.9815 26.5252 21.0745 27.4093 21.2768C28.1533 21.441 28.86 21.7434 29.4925 22.1682C30.0759 22.5921 30.5375 23.1621 30.831 23.8208C31.1687 24.6307 31.3314 25.5029 31.3085 26.3801C31.3467 27.3432 31.1007 28.2962 30.6012 29.1206C30.0756 29.8991 29.3491 30.5209 28.4986 30.9199C29.6525 31.2314 30.6576 31.9439 31.3335 32.9297C31.9832 33.9739 32.3093 35.187 32.2706 36.4162C32.2921 37.3962 32.0894 38.3681 31.6781 39.2578C31.298 40.034 30.7415 40.7104 30.0531 41.2329C29.344 41.7492 28.5465 42.1315 27.7 42.361C26.822 42.6046 25.9147 42.7266 25.0036 42.7236H15V21H24.7129ZM24.1357 29.7864C24.848 29.8152 25.5491 29.602 26.1248 29.1815C26.4002 28.9361 26.6146 28.6297 26.7506 28.2868C26.8866 27.9439 26.9406 27.5739 26.9082 27.2064C26.9282 26.777 26.8427 26.3493 26.659 25.9607C26.5049 25.6506 26.2646 25.3915 25.967 25.2146C25.6653 25.0204 25.3271 24.8899 24.9731 24.8312C24.5888 24.7564 24.1977 24.7225 23.8062 24.7302H19.5318V29.8057H24.1357V29.7864ZM24.3848 39.035C24.8155 39.0388 25.2452 38.9923 25.6652 38.8966C26.0489 38.8125 26.4127 38.6551 26.7366 38.4329C27.0543 38.2115 27.3109 37.9135 27.4826 37.5664C27.6828 37.1243 27.7744 36.6407 27.7498 36.156C27.793 35.7144 27.7345 35.2687 27.5788 34.8532C27.4231 34.4376 27.1743 34.0633 26.8515 33.7587C26.1672 33.2549 25.3287 33.0053 24.4803 33.0529H19.5318V39.035H24.3848ZM38.725 38.9547C39.0814 39.2834 39.5005 39.5366 39.9572 39.6993C40.4139 39.862 40.8988 39.9308 41.3827 39.9014C42.15 39.9206 42.9024 39.6872 43.524 39.2371C44.0296 38.9081 44.4125 38.4216 44.6134 37.8529H48.2275C47.8427 39.4722 46.9022 40.9053 45.5699 41.9029C44.2918 42.751 42.7816 43.1805 41.2484 43.1319C40.1542 43.1463 39.0683 42.9406 38.0551 42.5271C37.138 42.146 36.3158 41.5681 35.6466 40.8343C34.979 40.0665 34.4662 39.1768 34.1365 38.2142C33.7656 37.1385 33.5843 36.0065 33.6008 34.8688C33.5943 33.7502 33.7817 32.639 34.1544 31.5843C34.6549 30.1002 35.6131 28.8131 36.8913 27.9078C38.1694 27.0025 39.7017 26.5258 41.2678 26.5461C42.4241 26.5207 43.5677 26.7913 44.5899 27.3323C45.5153 27.8377 46.3131 28.5478 46.9222 29.4085C47.5456 30.3109 47.9932 31.3229 48.2414 32.3912C48.512 33.5389 48.6086 34.7208 48.5279 35.8972H37.763C37.6767 37.0024 38.0214 38.0981 38.725 38.9547ZM43.4479 30.6929C43.1469 30.3914 42.7846 30.1579 42.3856 30.0084C41.9865 29.859 41.56 29.7969 41.1349 29.8265C40.571 29.805 40.0111 29.9299 39.5099 30.1891C39.1122 30.4075 38.7614 30.7019 38.4773 31.0556C38.225 31.3867 38.0371 31.7623 37.9236 32.1629C37.8209 32.4968 37.7568 32.8414 37.7326 33.1899H44.4002C44.3419 32.2815 44.011 31.4118 43.4507 30.6943L43.4479 30.6929ZM36.873 22.4506H45.228V24.5862H36.873V22.4506Z" fill="white"/>
<path d="M81.4883 32.5039H76.416L76.3887 30.002H80.8184C81.5658 30.002 82.1992 29.8926 82.7188 29.6738C83.2474 29.446 83.6484 29.1224 83.9219 28.7031C84.1953 28.2747 84.332 27.7598 84.332 27.1582C84.332 26.4928 84.2044 25.9505 83.9492 25.5312C83.694 25.112 83.3021 24.8066 82.7734 24.6152C82.2539 24.4238 81.5885 24.3281 80.7773 24.3281H77.4551V41.5H74.0234V21.5938H80.7773C81.8711 21.5938 82.8464 21.6986 83.7031 21.9082C84.569 22.1178 85.3027 22.446 85.9043 22.8926C86.515 23.3301 86.9753 23.8861 87.2852 24.5605C87.6042 25.235 87.7637 26.0371 87.7637 26.9668C87.7637 27.7871 87.5677 28.5391 87.1758 29.2227C86.7839 29.8971 86.2051 30.4486 85.4395 30.877C84.6738 31.3053 83.7214 31.5605 82.582 31.6426L81.4883 32.5039ZM81.3379 41.5H75.3359L76.8809 38.7793H81.3379C82.1126 38.7793 82.7598 38.6517 83.2793 38.3965C83.7988 38.1322 84.1862 37.7721 84.4414 37.3164C84.7057 36.8516 84.8379 36.3092 84.8379 35.6895C84.8379 35.0423 84.724 34.4818 84.4961 34.0078C84.2682 33.5247 83.9082 33.1556 83.416 32.9004C82.9238 32.6361 82.2812 32.5039 81.4883 32.5039H77.6328L77.6602 30.002H82.6777L83.457 30.9453C84.5508 30.9818 85.4486 31.2233 86.1504 31.6699C86.8613 32.1165 87.39 32.6953 87.7363 33.4062C88.0827 34.1172 88.2559 34.8828 88.2559 35.7031C88.2559 36.9701 87.9779 38.0319 87.4219 38.8887C86.875 39.7454 86.0866 40.3971 85.0566 40.8438C84.0267 41.2812 82.7871 41.5 81.3379 41.5ZM97.9082 41.7734C96.8145 41.7734 95.8255 41.5957 94.9414 41.2402C94.0664 40.8757 93.319 40.3698 92.6992 39.7227C92.0885 39.0755 91.6191 38.3145 91.291 37.4395C90.9629 36.5645 90.7988 35.6211 90.7988 34.6094V34.0625C90.7988 32.9049 90.9674 31.8568 91.3047 30.918C91.6419 29.9792 92.1113 29.1771 92.7129 28.5117C93.3145 27.8372 94.0254 27.3223 94.8457 26.9668C95.666 26.6113 96.5547 26.4336 97.5117 26.4336C98.569 26.4336 99.4941 26.6113 100.287 26.9668C101.08 27.3223 101.736 27.8236 102.256 28.4707C102.785 29.1087 103.176 29.8698 103.432 30.7539C103.696 31.638 103.828 32.6133 103.828 33.6797V35.0879H92.3984V32.7227H100.574V32.4629C100.556 31.8704 100.438 31.3145 100.219 30.7949C100.009 30.2754 99.6855 29.8561 99.248 29.5371C98.8105 29.2181 98.2272 29.0586 97.498 29.0586C96.9512 29.0586 96.4635 29.1771 96.0352 29.4141C95.6159 29.6419 95.265 29.9746 94.9824 30.4121C94.6999 30.8496 94.4811 31.3783 94.3262 31.998C94.1803 32.6087 94.1074 33.2969 94.1074 34.0625V34.6094C94.1074 35.2565 94.194 35.8581 94.3672 36.4141C94.5495 36.9609 94.8138 37.4395 95.1602 37.8496C95.5065 38.2598 95.9258 38.5833 96.418 38.8203C96.9102 39.0482 97.4707 39.1621 98.0996 39.1621C98.8926 39.1621 99.599 39.0026 100.219 38.6836C100.839 38.3646 101.376 37.9134 101.832 37.3301L103.568 39.0117C103.249 39.4766 102.835 39.9232 102.324 40.3516C101.814 40.7708 101.189 41.1126 100.451 41.377C99.722 41.6413 98.8743 41.7734 97.9082 41.7734ZM109.652 20.5V41.5H106.371V20.5H109.652ZM109.078 33.5566L108.012 33.543C108.021 32.5221 108.162 31.5788 108.436 30.7129C108.718 29.847 109.11 29.0951 109.611 28.457C110.122 27.8099 110.732 27.3132 111.443 26.9668C112.154 26.6113 112.943 26.4336 113.809 26.4336C114.538 26.4336 115.194 26.5339 115.777 26.7344C116.37 26.9349 116.88 27.2585 117.309 27.7051C117.737 28.1426 118.061 28.7168 118.279 29.4277C118.507 30.1296 118.621 30.9863 118.621 31.998V41.5H115.312V31.9707C115.312 31.2598 115.208 30.6947 114.998 30.2754C114.798 29.8561 114.501 29.5553 114.109 29.373C113.717 29.1816 113.239 29.0859 112.674 29.0859C112.081 29.0859 111.557 29.2044 111.102 29.4414C110.655 29.6784 110.281 30.002 109.98 30.4121C109.68 30.8223 109.452 31.2962 109.297 31.834C109.151 32.3717 109.078 32.946 109.078 33.5566ZM130.297 38.5332V31.4785C130.297 30.9499 130.201 30.4941 130.01 30.1113C129.818 29.7285 129.527 29.4323 129.135 29.2227C128.752 29.013 128.269 28.9082 127.686 28.9082C127.148 28.9082 126.683 28.9993 126.291 29.1816C125.899 29.3639 125.594 29.61 125.375 29.9199C125.156 30.2298 125.047 30.5807 125.047 30.9727H121.766C121.766 30.3893 121.907 29.8242 122.189 29.2773C122.472 28.7305 122.882 28.2428 123.42 27.8145C123.958 27.3861 124.6 27.0488 125.348 26.8027C126.095 26.5566 126.934 26.4336 127.863 26.4336C128.975 26.4336 129.96 26.6204 130.816 26.9941C131.682 27.3678 132.361 27.9329 132.854 28.6895C133.355 29.4368 133.605 30.3757 133.605 31.5059V38.082C133.605 38.7565 133.651 39.3626 133.742 39.9004C133.842 40.429 133.984 40.8893 134.166 41.2812V41.5H130.789C130.634 41.1445 130.511 40.6934 130.42 40.1465C130.338 39.5905 130.297 39.0527 130.297 38.5332ZM130.775 32.5039L130.803 34.541H128.438C127.827 34.541 127.289 34.6003 126.824 34.7188C126.359 34.8281 125.972 34.9922 125.662 35.2109C125.352 35.4297 125.12 35.694 124.965 36.0039C124.81 36.3138 124.732 36.6647 124.732 37.0566C124.732 37.4486 124.824 37.8086 125.006 38.1367C125.188 38.4557 125.452 38.7064 125.799 38.8887C126.154 39.071 126.583 39.1621 127.084 39.1621C127.758 39.1621 128.346 39.0254 128.848 38.752C129.358 38.4694 129.759 38.1276 130.051 37.7266C130.342 37.3164 130.497 36.929 130.516 36.5645L131.582 38.0273C131.473 38.401 131.286 38.8021 131.021 39.2305C130.757 39.6589 130.411 40.069 129.982 40.4609C129.563 40.8438 129.057 41.1582 128.465 41.4043C127.882 41.6504 127.207 41.7734 126.441 41.7734C125.475 41.7734 124.614 41.582 123.857 41.1992C123.101 40.8073 122.508 40.2832 122.08 39.627C121.652 38.9616 121.438 38.2096 121.438 37.3711C121.438 36.5872 121.583 35.8945 121.875 35.293C122.176 34.6823 122.613 34.1719 123.188 33.7617C123.771 33.3516 124.482 33.0417 125.32 32.832C126.159 32.6133 127.116 32.5039 128.191 32.5039H130.775ZM140.318 29.8652V41.5H137.023V26.707H140.127L140.318 29.8652ZM139.73 33.5566L138.664 33.543C138.673 32.4948 138.819 31.5332 139.102 30.6582C139.393 29.7832 139.794 29.0312 140.305 28.4023C140.824 27.7734 141.444 27.2904 142.164 26.9531C142.884 26.6068 143.686 26.4336 144.57 26.4336C145.281 26.4336 145.924 26.5339 146.498 26.7344C147.081 26.9258 147.578 27.2402 147.988 27.6777C148.408 28.1152 148.727 28.6849 148.945 29.3867C149.164 30.0794 149.273 30.9316 149.273 31.9434V41.5H145.965V31.9297C145.965 31.2188 145.86 30.6582 145.65 30.248C145.45 29.8288 145.154 29.5326 144.762 29.3594C144.379 29.1771 143.9 29.0859 143.326 29.0859C142.761 29.0859 142.255 29.2044 141.809 29.4414C141.362 29.6784 140.984 30.002 140.674 30.4121C140.373 30.8223 140.141 31.2962 139.977 31.834C139.812 32.3717 139.73 32.946 139.73 33.5566ZM158.68 39.1484C159.217 39.1484 159.701 39.0436 160.129 38.834C160.566 38.6152 160.917 38.3145 161.182 37.9316C161.455 37.5488 161.605 37.1068 161.633 36.6055H164.736C164.718 37.5625 164.436 38.4329 163.889 39.2168C163.342 40.0007 162.617 40.625 161.715 41.0898C160.812 41.5456 159.814 41.7734 158.721 41.7734C157.59 41.7734 156.606 41.582 155.768 41.1992C154.929 40.8073 154.232 40.2695 153.676 39.5859C153.12 38.9023 152.701 38.1139 152.418 37.2207C152.145 36.3275 152.008 35.3704 152.008 34.3496V33.8711C152.008 32.8503 152.145 31.8932 152.418 31C152.701 30.0977 153.12 29.3047 153.676 28.6211C154.232 27.9375 154.929 27.4043 155.768 27.0215C156.606 26.6296 157.586 26.4336 158.707 26.4336C159.892 26.4336 160.931 26.6706 161.824 27.1445C162.717 27.6094 163.419 28.2611 163.93 29.0996C164.449 29.929 164.718 30.8952 164.736 31.998H161.633C161.605 31.4512 161.469 30.959 161.223 30.5215C160.986 30.0749 160.648 29.7194 160.211 29.4551C159.783 29.1908 159.268 29.0586 158.666 29.0586C158.001 29.0586 157.449 29.1953 157.012 29.4688C156.574 29.7331 156.232 30.0977 155.986 30.5625C155.74 31.0182 155.562 31.5332 155.453 32.1074C155.353 32.6725 155.303 33.2604 155.303 33.8711V34.3496C155.303 34.9603 155.353 35.5527 155.453 36.127C155.553 36.7012 155.727 37.2161 155.973 37.6719C156.228 38.1185 156.574 38.4785 157.012 38.752C157.449 39.0163 158.005 39.1484 158.68 39.1484ZM173.787 41.7734C172.693 41.7734 171.704 41.5957 170.82 41.2402C169.945 40.8757 169.198 40.3698 168.578 39.7227C167.967 39.0755 167.498 38.3145 167.17 37.4395C166.842 36.5645 166.678 35.6211 166.678 34.6094V34.0625C166.678 32.9049 166.846 31.8568 167.184 30.918C167.521 29.9792 167.99 29.1771 168.592 28.5117C169.193 27.8372 169.904 27.3223 170.725 26.9668C171.545 26.6113 172.434 26.4336 173.391 26.4336C174.448 26.4336 175.373 26.6113 176.166 26.9668C176.959 27.3223 177.615 27.8236 178.135 28.4707C178.663 29.1087 179.055 29.8698 179.311 30.7539C179.575 31.638 179.707 32.6133 179.707 33.6797V35.0879H168.277V32.7227H176.453V32.4629C176.435 31.8704 176.316 31.3145 176.098 30.7949C175.888 30.2754 175.564 29.8561 175.127 29.5371C174.689 29.2181 174.106 29.0586 173.377 29.0586C172.83 29.0586 172.342 29.1771 171.914 29.4141C171.495 29.6419 171.144 29.9746 170.861 30.4121C170.579 30.8496 170.36 31.3783 170.205 31.998C170.059 32.6087 169.986 33.2969 169.986 34.0625V34.6094C169.986 35.2565 170.073 35.8581 170.246 36.4141C170.428 36.9609 170.693 37.4395 171.039 37.8496C171.385 38.2598 171.805 38.5833 172.297 38.8203C172.789 39.0482 173.35 39.1621 173.979 39.1621C174.771 39.1621 175.478 39.0026 176.098 38.6836C176.717 38.3646 177.255 37.9134 177.711 37.3301L179.447 39.0117C179.128 39.4766 178.714 39.9232 178.203 40.3516C177.693 40.7708 177.068 41.1126 176.33 41.377C175.601 41.6413 174.753 41.7734 173.787 41.7734Z" fill="white"/>
</svg>
