<svg width="187" height="64" viewBox="0 0 187 64" fill="none" xmlns="http://www.w3.org/2000/svg">
<rect width="187" height="64" rx="4" fill="#053361"/>
<path d="M8 11.8919C8 9.74246 9.74246 8 11.8919 8H52.1081C54.2575 8 56 9.74246 56 11.8919V52.1081C56 54.2575 54.2575 56 52.1081 56H11.8919C9.74246 56 8 54.2575 8 52.1081V11.8919Z" fill="white"/>
<path d="M52.4 8H11.6C10.6452 8 9.72955 8.37928 9.05442 9.05442C8.37928 9.72955 8 10.6452 8 11.6V52.4C8 53.3548 8.37928 54.2705 9.05442 54.9456C9.72955 55.6207 10.6452 56 11.6 56H52.4C53.3548 56 54.2705 55.6207 54.9456 54.9456C55.6207 54.2705 56 53.3548 56 52.4V11.6C56 10.6452 55.6207 9.72955 54.9456 9.05442C54.2705 8.37928 53.3548 8 52.4 8ZM22.4 48.8H15.2V27.2H22.4V48.8ZM18.8 23C17.9748 22.9764 17.1749 22.7102 16.5002 22.2346C15.8255 21.759 15.3059 21.0951 15.0063 20.3259C14.7067 19.5566 14.6405 18.7162 14.8159 17.9095C14.9912 17.1029 15.4004 16.3658 15.9923 15.7903C16.5841 15.2149 17.3325 14.8266 18.1438 14.6741C18.955 14.5215 19.7933 14.6114 20.5538 14.9325C21.3142 15.2536 21.9632 15.7917 22.4197 16.4796C22.8761 17.1674 23.1197 17.9745 23.12 18.8C23.101 19.9288 22.636 21.0043 21.8265 21.7913C21.017 22.5783 19.9289 23.0128 18.8 23ZM48.8 48.8H41.6V37.424C41.6 34.016 40.16 32.792 38.288 32.792C37.7391 32.8285 37.2029 32.9732 36.7101 33.2175C36.2173 33.4619 35.7776 33.8013 35.4164 34.2161C35.0551 34.6309 34.7793 35.1129 34.6049 35.6346C34.4305 36.1563 34.3608 36.7073 34.4 37.256C34.3888 37.3677 34.3888 37.4803 34.4 37.592V48.8H27.2V27.2H34.16V30.32C34.8621 29.252 35.8266 28.3822 36.9613 27.7938C38.0959 27.2055 39.3626 26.9184 40.64 26.96C44.36 26.96 48.704 29.024 48.704 35.744L48.8 48.8Z" fill="#0A66C2"/>
<path d="M86.4922 38.7793V41.5H76.498V38.7793H86.4922ZM77.4551 21.5938V41.5H74.0234V21.5938H77.4551ZM92.3438 26.707V41.5H89.0352V26.707H92.3438ZM88.8164 22.8242C88.8164 22.3229 88.9805 21.9082 89.3086 21.5801C89.6458 21.2428 90.1107 21.0742 90.7031 21.0742C91.2865 21.0742 91.7467 21.2428 92.084 21.5801C92.4212 21.9082 92.5898 22.3229 92.5898 22.8242C92.5898 23.3164 92.4212 23.7266 92.084 24.0547C91.7467 24.3828 91.2865 24.5469 90.7031 24.5469C90.1107 24.5469 89.6458 24.3828 89.3086 24.0547C88.9805 23.7266 88.8164 23.3164 88.8164 22.8242ZM99.2207 29.8652V41.5H95.9258V26.707H99.0293L99.2207 29.8652ZM98.6328 33.5566L97.5664 33.543C97.5755 32.4948 97.7214 31.5332 98.0039 30.6582C98.2956 29.7832 98.6966 29.0312 99.207 28.4023C99.7266 27.7734 100.346 27.2904 101.066 26.9531C101.786 26.6068 102.589 26.4336 103.473 26.4336C104.184 26.4336 104.826 26.5339 105.4 26.7344C105.984 26.9258 106.48 27.2402 106.891 27.6777C107.31 28.1152 107.629 28.6849 107.848 29.3867C108.066 30.0794 108.176 30.9316 108.176 31.9434V41.5H104.867V31.9297C104.867 31.2188 104.762 30.6582 104.553 30.248C104.352 29.8288 104.056 29.5326 103.664 29.3594C103.281 29.1771 102.803 29.0859 102.229 29.0859C101.663 29.0859 101.158 29.2044 100.711 29.4414C100.264 29.6784 99.8861 30.002 99.5762 30.4121C99.2754 30.8223 99.043 31.2962 98.8789 31.834C98.7148 32.3717 98.6328 32.946 98.6328 33.5566ZM114.861 20.5V41.5H111.553V20.5H114.861ZM124.049 26.707L117.609 33.8438L114.082 37.4531L113.221 34.6641L115.887 31.3691L120.07 26.707H124.049ZM120.781 41.5L115.982 34.5547L118.061 32.2441L124.596 41.5H120.781ZM132.389 41.7734C131.295 41.7734 130.306 41.5957 129.422 41.2402C128.547 40.8757 127.799 40.3698 127.18 39.7227C126.569 39.0755 126.1 38.3145 125.771 37.4395C125.443 36.5645 125.279 35.6211 125.279 34.6094V34.0625C125.279 32.9049 125.448 31.8568 125.785 30.918C126.122 29.9792 126.592 29.1771 127.193 28.5117C127.795 27.8372 128.506 27.3223 129.326 26.9668C130.146 26.6113 131.035 26.4336 131.992 26.4336C133.049 26.4336 133.975 26.6113 134.768 26.9668C135.561 27.3223 136.217 27.8236 136.736 28.4707C137.265 29.1087 137.657 29.8698 137.912 30.7539C138.176 31.638 138.309 32.6133 138.309 33.6797V35.0879H126.879V32.7227H135.055V32.4629C135.036 31.8704 134.918 31.3145 134.699 30.7949C134.49 30.2754 134.166 29.8561 133.729 29.5371C133.291 29.2181 132.708 29.0586 131.979 29.0586C131.432 29.0586 130.944 29.1771 130.516 29.4141C130.096 29.6419 129.745 29.9746 129.463 30.4121C129.18 30.8496 128.962 31.3783 128.807 31.998C128.661 32.6087 128.588 33.2969 128.588 34.0625V34.6094C128.588 35.2565 128.674 35.8581 128.848 36.4141C129.03 36.9609 129.294 37.4395 129.641 37.8496C129.987 38.2598 130.406 38.5833 130.898 38.8203C131.391 39.0482 131.951 39.1621 132.58 39.1621C133.373 39.1621 134.079 39.0026 134.699 38.6836C135.319 38.3646 135.857 37.9134 136.312 37.3301L138.049 39.0117C137.73 39.4766 137.315 39.9232 136.805 40.3516C136.294 40.7708 135.67 41.1126 134.932 41.377C134.202 41.6413 133.355 41.7734 132.389 41.7734ZM149.902 38.4375V20.5H153.211V41.5H150.217L149.902 38.4375ZM140.277 34.2676V33.9805C140.277 32.8594 140.41 31.8385 140.674 30.918C140.938 29.9883 141.321 29.1908 141.822 28.5254C142.324 27.8509 142.934 27.3359 143.654 26.9805C144.374 26.6159 145.186 26.4336 146.088 26.4336C146.981 26.4336 147.765 26.6068 148.439 26.9531C149.114 27.2995 149.688 27.7962 150.162 28.4434C150.636 29.0814 151.014 29.847 151.297 30.7402C151.579 31.6243 151.78 32.6087 151.898 33.6934V34.6094C151.78 35.6667 151.579 36.6328 151.297 37.5078C151.014 38.3828 150.636 39.1393 150.162 39.7773C149.688 40.4154 149.109 40.9076 148.426 41.2539C147.751 41.6003 146.963 41.7734 146.061 41.7734C145.167 41.7734 144.361 41.5866 143.641 41.2129C142.93 40.8392 142.324 40.3151 141.822 39.6406C141.321 38.9661 140.938 38.1732 140.674 37.2617C140.41 36.3411 140.277 35.3431 140.277 34.2676ZM143.572 33.9805V34.2676C143.572 34.9421 143.632 35.571 143.75 36.1543C143.878 36.7376 144.074 37.2526 144.338 37.6992C144.602 38.1367 144.944 38.4831 145.363 38.7383C145.792 38.9844 146.302 39.1074 146.895 39.1074C147.642 39.1074 148.257 38.9434 148.74 38.6152C149.223 38.2871 149.602 37.8451 149.875 37.2891C150.158 36.724 150.349 36.0951 150.449 35.4023V32.9277C150.395 32.39 150.281 31.8887 150.107 31.4238C149.943 30.959 149.72 30.5534 149.438 30.207C149.155 29.8516 148.804 29.5781 148.385 29.3867C147.975 29.1862 147.487 29.0859 146.922 29.0859C146.32 29.0859 145.81 29.2135 145.391 29.4688C144.971 29.724 144.625 30.0749 144.352 30.5215C144.087 30.9681 143.891 31.4876 143.764 32.0801C143.636 32.6725 143.572 33.306 143.572 33.9805ZM160.648 21.5938V41.5H157.217V21.5938H160.648ZM167.854 29.8652V41.5H164.559V26.707H167.662L167.854 29.8652ZM167.266 33.5566L166.199 33.543C166.208 32.4948 166.354 31.5332 166.637 30.6582C166.928 29.7832 167.329 29.0312 167.84 28.4023C168.359 27.7734 168.979 27.2904 169.699 26.9531C170.419 26.6068 171.221 26.4336 172.105 26.4336C172.816 26.4336 173.459 26.5339 174.033 26.7344C174.617 26.9258 175.113 27.2402 175.523 27.6777C175.943 28.1152 176.262 28.6849 176.48 29.3867C176.699 30.0794 176.809 30.9316 176.809 31.9434V41.5H173.5V31.9297C173.5 31.2188 173.395 30.6582 173.186 30.248C172.985 29.8288 172.689 29.5326 172.297 29.3594C171.914 29.1771 171.436 29.0859 170.861 29.0859C170.296 29.0859 169.79 29.2044 169.344 29.4414C168.897 29.6784 168.519 30.002 168.209 30.4121C167.908 30.8223 167.676 31.2962 167.512 31.834C167.348 32.3717 167.266 32.946 167.266 33.5566Z" fill="white"/>
</svg>
