<svg width="198" height="64" viewBox="0 0 198 64" fill="none" xmlns="http://www.w3.org/2000/svg">
<rect width="198" height="64" rx="4" fill="#0F567F"/>
<path d="M8 12C8 9.79086 9.79086 8 12 8H52C54.2091 8 56 9.79086 56 12V52C56 54.2091 54.2091 56 52 56H12C9.79086 56 8 54.2091 8 52V12Z" fill="#30A3E6"/>
<path d="M16.129 20.129C16.129 17.9199 17.9199 16.129 20.129 16.129H43.871C46.0801 16.129 47.871 17.9199 47.871 20.129V43.871C47.871 46.0801 46.0801 47.871 43.871 47.871H20.129C17.9199 47.871 16.129 46.0801 16.129 43.871V20.129Z" fill="white"/>
<path d="M32 8C18.7419 8 8 18.7419 8 32C8 45.2581 18.7419 56 32 56C45.2581 56 56 45.2581 56 32C56 18.7419 45.2581 8 32 8ZM43.129 24.3258C42.771 28.1194 41.2032 37.3323 40.4097 41.5806C40.071 43.3806 39.4129 43.9806 38.7742 44.0387C37.3806 44.1645 36.3258 43.1194 34.971 42.229C32.8613 40.8452 31.6613 39.9839 29.6194 38.629C27.2484 37.071 28.7871 36.2097 30.1323 34.8064C30.4903 34.4387 36.6258 28.8548 36.7419 28.3516C36.7613 28.2839 36.771 28.0516 36.6258 27.9258C36.4806 27.8 36.2774 27.8484 36.1323 27.8774C35.9194 27.9226 32.5452 30.1516 26.0097 34.5645C25.0548 35.2226 24.1871 35.5419 23.4065 35.5226C22.5452 35.5032 20.9 35.0387 19.671 34.6419C18.171 34.1581 16.971 33.8968 17.0774 33.0645C17.129 32.6323 17.7258 32.1903 18.8677 31.7387C25.8613 28.6935 30.5258 26.6839 32.8613 25.7097C39.529 22.9419 40.9129 22.4581 41.8129 22.4387C42.0161 22.4387 42.4516 22.4871 42.7419 22.7194C42.9314 22.8859 43.0521 23.1171 43.0806 23.3677C43.133 23.6842 43.1492 24.0056 43.129 24.3258Z" fill="#30A3E6"/>
<path d="M82.2129 21.5938V41.5H78.8086V21.5938H82.2129ZM88.4609 21.5938V24.3281H72.6152V21.5938H88.4609ZM95.9668 41.7734C94.873 41.7734 93.8841 41.5957 93 41.2402C92.125 40.8757 91.3776 40.3698 90.7578 39.7227C90.1471 39.0755 89.6777 38.3145 89.3496 37.4395C89.0215 36.5645 88.8574 35.6211 88.8574 34.6094V34.0625C88.8574 32.9049 89.026 31.8568 89.3633 30.918C89.7005 29.9792 90.1699 29.1771 90.7715 28.5117C91.373 27.8372 92.084 27.3223 92.9043 26.9668C93.7246 26.6113 94.6133 26.4336 95.5703 26.4336C96.6276 26.4336 97.5527 26.6113 98.3457 26.9668C99.1387 27.3223 99.7949 27.8236 100.314 28.4707C100.843 29.1087 101.235 29.8698 101.49 30.7539C101.755 31.638 101.887 32.6133 101.887 33.6797V35.0879H90.457V32.7227H98.6328V32.4629C98.6146 31.8704 98.4961 31.3145 98.2773 30.7949C98.0677 30.2754 97.7441 29.8561 97.3066 29.5371C96.8691 29.2181 96.2858 29.0586 95.5566 29.0586C95.0098 29.0586 94.5221 29.1771 94.0938 29.4141C93.6745 29.6419 93.3236 29.9746 93.041 30.4121C92.7585 30.8496 92.5397 31.3783 92.3848 31.998C92.2389 32.6087 92.166 33.2969 92.166 34.0625V34.6094C92.166 35.2565 92.2526 35.8581 92.4258 36.4141C92.6081 36.9609 92.8724 37.4395 93.2188 37.8496C93.5651 38.2598 93.9844 38.5833 94.4766 38.8203C94.9688 39.0482 95.5293 39.1621 96.1582 39.1621C96.9512 39.1621 97.6576 39.0026 98.2773 38.6836C98.8971 38.3646 99.4349 37.9134 99.8906 37.3301L101.627 39.0117C101.308 39.4766 100.893 39.9232 100.383 40.3516C99.8724 40.7708 99.248 41.1126 98.5098 41.377C97.7806 41.6413 96.9329 41.7734 95.9668 41.7734ZM107.984 20.5V41.5H104.676V20.5H107.984ZM118.115 41.7734C117.021 41.7734 116.033 41.5957 115.148 41.2402C114.273 40.8757 113.526 40.3698 112.906 39.7227C112.296 39.0755 111.826 38.3145 111.498 37.4395C111.17 36.5645 111.006 35.6211 111.006 34.6094V34.0625C111.006 32.9049 111.174 31.8568 111.512 30.918C111.849 29.9792 112.318 29.1771 112.92 28.5117C113.521 27.8372 114.232 27.3223 115.053 26.9668C115.873 26.6113 116.762 26.4336 117.719 26.4336C118.776 26.4336 119.701 26.6113 120.494 26.9668C121.287 27.3223 121.943 27.8236 122.463 28.4707C122.992 29.1087 123.383 29.8698 123.639 30.7539C123.903 31.638 124.035 32.6133 124.035 33.6797V35.0879H112.605V32.7227H120.781V32.4629C120.763 31.8704 120.645 31.3145 120.426 30.7949C120.216 30.2754 119.893 29.8561 119.455 29.5371C119.018 29.2181 118.434 29.0586 117.705 29.0586C117.158 29.0586 116.671 29.1771 116.242 29.4141C115.823 29.6419 115.472 29.9746 115.189 30.4121C114.907 30.8496 114.688 31.3783 114.533 31.998C114.387 32.6087 114.314 33.2969 114.314 34.0625V34.6094C114.314 35.2565 114.401 35.8581 114.574 36.4141C114.757 36.9609 115.021 37.4395 115.367 37.8496C115.714 38.2598 116.133 38.5833 116.625 38.8203C117.117 39.0482 117.678 39.1621 118.307 39.1621C119.1 39.1621 119.806 39.0026 120.426 38.6836C121.046 38.3646 121.583 37.9134 122.039 37.3301L123.775 39.0117C123.456 39.4766 123.042 39.9232 122.531 40.3516C122.021 40.7708 121.396 41.1126 120.658 41.377C119.929 41.6413 119.081 41.7734 118.115 41.7734ZM136.08 26.707H139.074V41.0898C139.074 42.4206 138.792 43.5508 138.227 44.4805C137.661 45.4102 136.873 46.1165 135.861 46.5996C134.85 47.0918 133.678 47.3379 132.348 47.3379C131.783 47.3379 131.154 47.2559 130.461 47.0918C129.777 46.9277 129.112 46.6634 128.465 46.2988C127.827 45.9434 127.294 45.474 126.865 44.8906L128.41 42.9492C128.939 43.5781 129.522 44.0384 130.16 44.3301C130.798 44.6217 131.468 44.7676 132.17 44.7676C132.926 44.7676 133.569 44.6263 134.098 44.3438C134.635 44.0703 135.05 43.6647 135.342 43.127C135.633 42.5892 135.779 41.9329 135.779 41.1582V30.0566L136.08 26.707ZM126.031 34.2676V33.9805C126.031 32.8594 126.168 31.8385 126.441 30.918C126.715 29.9883 127.107 29.1908 127.617 28.5254C128.128 27.8509 128.747 27.3359 129.477 26.9805C130.206 26.6159 131.031 26.4336 131.951 26.4336C132.908 26.4336 133.724 26.6068 134.398 26.9531C135.082 27.2995 135.652 27.7962 136.107 28.4434C136.563 29.0814 136.919 29.847 137.174 30.7402C137.438 31.6243 137.634 32.6087 137.762 33.6934V34.6094C137.643 35.6667 137.443 36.6328 137.16 37.5078C136.878 38.3828 136.504 39.1393 136.039 39.7773C135.574 40.4154 135 40.9076 134.316 41.2539C133.642 41.6003 132.844 41.7734 131.924 41.7734C131.021 41.7734 130.206 41.5866 129.477 41.2129C128.757 40.8392 128.137 40.3151 127.617 39.6406C127.107 38.9661 126.715 38.1732 126.441 37.2617C126.168 36.3411 126.031 35.3431 126.031 34.2676ZM129.326 33.9805V34.2676C129.326 34.9421 129.39 35.571 129.518 36.1543C129.654 36.7376 129.859 37.2526 130.133 37.6992C130.415 38.1367 130.771 38.4831 131.199 38.7383C131.637 38.9844 132.152 39.1074 132.744 39.1074C133.519 39.1074 134.152 38.9434 134.645 38.6152C135.146 38.2871 135.529 37.8451 135.793 37.2891C136.066 36.724 136.258 36.0951 136.367 35.4023V32.9277C136.312 32.39 136.199 31.8887 136.025 31.4238C135.861 30.959 135.638 30.5534 135.355 30.207C135.073 29.8516 134.717 29.5781 134.289 29.3867C133.861 29.1862 133.355 29.0859 132.771 29.0859C132.179 29.0859 131.664 29.2135 131.227 29.4688C130.789 29.724 130.429 30.0749 130.146 30.5215C129.873 30.9681 129.668 31.4876 129.531 32.0801C129.395 32.6725 129.326 33.306 129.326 33.9805ZM145.801 29.5234V41.5H142.506V26.707H145.65L145.801 29.5234ZM150.326 26.6113L150.299 29.6738C150.098 29.6374 149.88 29.61 149.643 29.5918C149.415 29.5736 149.187 29.5645 148.959 29.5645C148.394 29.5645 147.897 29.6465 147.469 29.8105C147.04 29.9655 146.68 30.1934 146.389 30.4941C146.106 30.7858 145.887 31.1413 145.732 31.5605C145.577 31.9798 145.486 32.4492 145.459 32.9688L144.707 33.0234C144.707 32.0938 144.798 31.2324 144.98 30.4395C145.163 29.6465 145.436 28.9492 145.801 28.3477C146.174 27.7461 146.639 27.2767 147.195 26.9395C147.76 26.6022 148.412 26.4336 149.15 26.4336C149.351 26.4336 149.565 26.4518 149.793 26.4883C150.03 26.5247 150.208 26.5658 150.326 26.6113ZM160.238 38.5332V31.4785C160.238 30.9499 160.143 30.4941 159.951 30.1113C159.76 29.7285 159.468 29.4323 159.076 29.2227C158.693 29.013 158.21 28.9082 157.627 28.9082C157.089 28.9082 156.624 28.9993 156.232 29.1816C155.84 29.3639 155.535 29.61 155.316 29.9199C155.098 30.2298 154.988 30.5807 154.988 30.9727H151.707C151.707 30.3893 151.848 29.8242 152.131 29.2773C152.413 28.7305 152.824 28.2428 153.361 27.8145C153.899 27.3861 154.542 27.0488 155.289 26.8027C156.036 26.5566 156.875 26.4336 157.805 26.4336C158.917 26.4336 159.901 26.6204 160.758 26.9941C161.624 27.3678 162.303 27.9329 162.795 28.6895C163.296 29.4368 163.547 30.3757 163.547 31.5059V38.082C163.547 38.7565 163.592 39.3626 163.684 39.9004C163.784 40.429 163.925 40.8893 164.107 41.2812V41.5H160.73C160.576 41.1445 160.452 40.6934 160.361 40.1465C160.279 39.5905 160.238 39.0527 160.238 38.5332ZM160.717 32.5039L160.744 34.541H158.379C157.768 34.541 157.23 34.6003 156.766 34.7188C156.301 34.8281 155.913 34.9922 155.604 35.2109C155.294 35.4297 155.061 35.694 154.906 36.0039C154.751 36.3138 154.674 36.6647 154.674 37.0566C154.674 37.4486 154.765 37.8086 154.947 38.1367C155.13 38.4557 155.394 38.7064 155.74 38.8887C156.096 39.071 156.524 39.1621 157.025 39.1621C157.7 39.1621 158.288 39.0254 158.789 38.752C159.299 38.4694 159.701 38.1276 159.992 37.7266C160.284 37.3164 160.439 36.929 160.457 36.5645L161.523 38.0273C161.414 38.401 161.227 38.8021 160.963 39.2305C160.699 39.6589 160.352 40.069 159.924 40.4609C159.505 40.8438 158.999 41.1582 158.406 41.4043C157.823 41.6504 157.148 41.7734 156.383 41.7734C155.417 41.7734 154.555 41.582 153.799 41.1992C153.042 40.8073 152.45 40.2832 152.021 39.627C151.593 38.9616 151.379 38.2096 151.379 37.3711C151.379 36.5872 151.525 35.8945 151.816 35.293C152.117 34.6823 152.555 34.1719 153.129 33.7617C153.712 33.3516 154.423 33.0417 155.262 32.832C156.1 32.6133 157.057 32.5039 158.133 32.5039H160.717ZM170.287 29.7148V41.5H166.992V26.707H170.096L170.287 29.7148ZM169.754 33.5566L168.633 33.543C168.633 32.5221 168.76 31.5788 169.016 30.7129C169.271 29.847 169.645 29.0951 170.137 28.457C170.629 27.8099 171.24 27.3132 171.969 26.9668C172.707 26.6113 173.559 26.4336 174.525 26.4336C175.2 26.4336 175.815 26.5339 176.371 26.7344C176.936 26.9258 177.424 27.2311 177.834 27.6504C178.253 28.0697 178.572 28.6074 178.791 29.2637C179.019 29.9199 179.133 30.7129 179.133 31.6426V41.5H175.838V31.9297C175.838 31.2096 175.729 30.6445 175.51 30.2344C175.3 29.8242 174.995 29.5326 174.594 29.3594C174.202 29.1771 173.732 29.0859 173.186 29.0859C172.566 29.0859 172.037 29.2044 171.6 29.4414C171.171 29.6784 170.82 30.002 170.547 30.4121C170.273 30.8223 170.073 31.2962 169.945 31.834C169.818 32.3717 169.754 32.946 169.754 33.5566ZM178.928 32.6816L177.383 33.0234C177.383 32.1302 177.506 31.2871 177.752 30.4941C178.007 29.6921 178.376 28.9902 178.859 28.3887C179.352 27.778 179.958 27.2995 180.678 26.9531C181.398 26.6068 182.223 26.4336 183.152 26.4336C183.909 26.4336 184.583 26.5384 185.176 26.748C185.777 26.9486 186.288 27.2676 186.707 27.7051C187.126 28.1426 187.445 28.7122 187.664 29.4141C187.883 30.1068 187.992 30.9453 187.992 31.9297V41.5H184.684V31.916C184.684 31.1686 184.574 30.5898 184.355 30.1797C184.146 29.7695 183.845 29.487 183.453 29.332C183.061 29.168 182.592 29.0859 182.045 29.0859C181.535 29.0859 181.083 29.1816 180.691 29.373C180.309 29.5553 179.985 29.8151 179.721 30.1523C179.456 30.4805 179.256 30.8587 179.119 31.2871C178.992 31.7155 178.928 32.1803 178.928 32.6816Z" fill="white"/>
</svg>
