<svg width="206" height="64" viewBox="0 0 206 64" fill="none" xmlns="http://www.w3.org/2000/svg">
<rect width="206" height="64" rx="4" fill="#136C34"/>
<rect x="8" y="8" width="48" height="48" rx="4" fill="white"/>
<path d="M25.4 42.0688L25.8571 42.2955C27.7643 43.4288 29.9 43.96 32.0357 43.96C38.75 43.96 44.2429 38.513 44.2429 31.8548C44.2429 28.6744 42.9429 25.572 40.6571 23.3053C38.3643 21.0316 35.3143 19.7496 32.0357 19.7496C25.3214 19.7496 19.8286 25.1966 19.9 31.9327C19.9 34.2064 20.5857 36.3951 21.7286 38.2864L22.0357 38.7397L20.8143 43.2021C20.8214 43.2021 25.4 42.0688 25.4 42.0688Z" fill="white"/>
<path d="M41.9571 22.087C39.3643 19.4379 35.7786 18 32.1143 18C24.3286 18 18.0714 24.2828 18.15 31.9256C18.15 34.3481 18.8357 36.6926 19.9786 38.8105L18 46L25.4 44.1088C27.4571 45.2421 29.75 45.7733 32.0357 45.7733C39.7429 45.7733 46 39.4905 46 31.8477C46 28.1432 44.55 24.6653 41.9571 22.087ZM32.1143 43.4288C30.0571 43.4288 27.9929 42.8975 26.2357 41.8421L25.7786 41.6155L21.35 42.7488L22.4929 38.4351L22.1857 37.9818C18.8286 32.6056 20.4286 25.4941 25.9214 22.1649C31.4143 18.8358 38.5143 20.4225 41.8714 25.8695C45.2286 31.3165 43.6286 38.3572 38.1357 41.6863C36.3857 42.8267 34.25 43.4288 32.1143 43.4288ZM38.8286 35.0281L37.9857 34.6527C37.9857 34.6527 36.7643 34.1214 36 33.746C35.9214 33.746 35.85 33.6681 35.7714 33.6681C35.5429 33.6681 35.3929 33.746 35.2357 33.8168C35.2357 33.8168 35.1571 33.8948 34.0929 35.106C34.0143 35.2547 33.8643 35.3327 33.7143 35.3327H33.6429C33.5643 35.3327 33.4143 35.2547 33.3357 35.1839L32.9571 35.0352C32.1143 34.6598 31.3571 34.1993 30.7429 33.5973C30.5929 33.4485 30.3643 33.2927 30.2071 33.1439C29.6714 32.6127 29.1357 32.0106 28.7571 31.3306L28.6786 31.1819C28.6 31.104 28.6 31.0331 28.5286 30.8773C28.5286 30.7286 28.5286 30.5727 28.6071 30.5019C28.6071 30.5019 28.9143 30.1265 29.1429 29.8998C29.2929 29.7511 29.3714 29.5244 29.5214 29.3686C29.6714 29.1419 29.75 28.8373 29.6714 28.6107C29.5929 28.2353 28.6786 26.1882 28.45 25.7349C28.3 25.5082 28.1429 25.4303 27.9143 25.3595H27.0714C26.9214 25.3595 26.7643 25.4374 26.6143 25.4374L26.5357 25.5153C26.3857 25.5932 26.2286 25.742 26.0786 25.8199C25.9286 25.9686 25.85 26.1245 25.7 26.2732C25.1643 26.9532 24.8571 27.789 24.8571 28.6178C24.8571 29.2198 25.0071 29.829 25.2357 30.3602L25.3143 30.5869C26 32.0248 26.9143 33.3139 28.1357 34.4473L28.4429 34.7518C28.6714 34.9785 28.9 35.1272 29.05 35.3539C30.65 36.7139 32.4857 37.6985 34.5429 38.2297C34.7714 38.3076 35.0786 38.3076 35.3071 38.3784H36.0714C36.45 38.3784 36.9143 38.2297 37.2143 38.0739C37.4429 37.9251 37.5929 37.9251 37.75 37.7693L37.9 37.6205C38.05 37.4718 38.2071 37.3939 38.3571 37.2451C38.5071 37.0964 38.6643 36.9406 38.7357 36.7918C38.8857 36.4872 38.9643 36.1118 39.0429 35.7293V35.1981C39.0571 35.1839 38.9857 35.106 38.8286 35.0281Z" fill="#136C34"/>
<path d="M79.0137 37.0293L82.9785 21.5938H85.0566L84.8242 25.5723L80.5859 41.5H78.4258L79.0137 37.0293ZM76.0469 21.5938L79.2598 36.9062L79.5469 41.5H77.25L72.6426 21.5938H76.0469ZM89.5547 36.8652L92.7266 21.5938H96.1445L91.5371 41.5H89.2402L89.5547 36.8652ZM85.8633 21.5938L89.7871 37.0703L90.3613 41.5H88.2012L84.0312 25.5723L83.8125 21.5938H85.8633ZM101.613 20.5V41.5H98.332V20.5H101.613ZM101.039 33.5566L99.9727 33.543C99.9818 32.5221 100.123 31.5788 100.396 30.7129C100.679 29.847 101.071 29.0951 101.572 28.457C102.083 27.8099 102.693 27.3132 103.404 26.9668C104.115 26.6113 104.904 26.4336 105.77 26.4336C106.499 26.4336 107.155 26.5339 107.738 26.7344C108.331 26.9349 108.841 27.2585 109.27 27.7051C109.698 28.1426 110.021 28.7168 110.24 29.4277C110.468 30.1296 110.582 30.9863 110.582 31.998V41.5H107.273V31.9707C107.273 31.2598 107.169 30.6947 106.959 30.2754C106.758 29.8561 106.462 29.5553 106.07 29.373C105.678 29.1816 105.2 29.0859 104.635 29.0859C104.042 29.0859 103.518 29.2044 103.062 29.4414C102.616 29.6784 102.242 30.002 101.941 30.4121C101.641 30.8223 101.413 31.2962 101.258 31.834C101.112 32.3717 101.039 32.946 101.039 33.5566ZM122.258 38.5332V31.4785C122.258 30.9499 122.162 30.4941 121.971 30.1113C121.779 29.7285 121.488 29.4323 121.096 29.2227C120.713 29.013 120.23 28.9082 119.646 28.9082C119.109 28.9082 118.644 28.9993 118.252 29.1816C117.86 29.3639 117.555 29.61 117.336 29.9199C117.117 30.2298 117.008 30.5807 117.008 30.9727H113.727C113.727 30.3893 113.868 29.8242 114.15 29.2773C114.433 28.7305 114.843 28.2428 115.381 27.8145C115.919 27.3861 116.561 27.0488 117.309 26.8027C118.056 26.5566 118.895 26.4336 119.824 26.4336C120.936 26.4336 121.921 26.6204 122.777 26.9941C123.643 27.3678 124.322 27.9329 124.814 28.6895C125.316 29.4368 125.566 30.3757 125.566 31.5059V38.082C125.566 38.7565 125.612 39.3626 125.703 39.9004C125.803 40.429 125.945 40.8893 126.127 41.2812V41.5H122.75C122.595 41.1445 122.472 40.6934 122.381 40.1465C122.299 39.5905 122.258 39.0527 122.258 38.5332ZM122.736 32.5039L122.764 34.541H120.398C119.788 34.541 119.25 34.6003 118.785 34.7188C118.32 34.8281 117.933 34.9922 117.623 35.2109C117.313 35.4297 117.081 35.694 116.926 36.0039C116.771 36.3138 116.693 36.6647 116.693 37.0566C116.693 37.4486 116.785 37.8086 116.967 38.1367C117.149 38.4557 117.413 38.7064 117.76 38.8887C118.115 39.071 118.544 39.1621 119.045 39.1621C119.719 39.1621 120.307 39.0254 120.809 38.752C121.319 38.4694 121.72 38.1276 122.012 37.7266C122.303 37.3164 122.458 36.929 122.477 36.5645L123.543 38.0273C123.434 38.401 123.247 38.8021 122.982 39.2305C122.718 39.6589 122.372 40.069 121.943 40.4609C121.524 40.8438 121.018 41.1582 120.426 41.4043C119.842 41.6504 119.168 41.7734 118.402 41.7734C117.436 41.7734 116.575 41.582 115.818 41.1992C115.062 40.8073 114.469 40.2832 114.041 39.627C113.613 38.9616 113.398 38.2096 113.398 37.3711C113.398 36.5872 113.544 35.8945 113.836 35.293C114.137 34.6823 114.574 34.1719 115.148 33.7617C115.732 33.3516 116.443 33.0417 117.281 32.832C118.12 32.6133 119.077 32.5039 120.152 32.5039H122.736ZM135.793 26.707V29.1133H127.453V26.707H135.793ZM129.859 23.084H133.154V37.4121C133.154 37.8678 133.218 38.2188 133.346 38.4648C133.482 38.7018 133.669 38.8613 133.906 38.9434C134.143 39.0254 134.421 39.0664 134.74 39.0664C134.968 39.0664 135.187 39.0527 135.396 39.0254C135.606 38.998 135.775 38.9707 135.902 38.9434L135.916 41.459C135.643 41.541 135.324 41.6139 134.959 41.6777C134.604 41.7415 134.193 41.7734 133.729 41.7734C132.972 41.7734 132.302 41.6413 131.719 41.377C131.135 41.1035 130.68 40.6615 130.352 40.0508C130.023 39.4401 129.859 38.6289 129.859 37.6172V23.084ZM146.635 37.4941C146.635 37.166 146.553 36.8698 146.389 36.6055C146.225 36.332 145.91 36.0859 145.445 35.8672C144.99 35.6484 144.315 35.4479 143.422 35.2656C142.638 35.0924 141.918 34.8874 141.262 34.6504C140.615 34.4043 140.059 34.1081 139.594 33.7617C139.129 33.4154 138.769 33.0052 138.514 32.5312C138.258 32.0573 138.131 31.5104 138.131 30.8906C138.131 30.2891 138.263 29.7194 138.527 29.1816C138.792 28.6439 139.17 28.1699 139.662 27.7598C140.154 27.3496 140.751 27.026 141.453 26.7891C142.164 26.5521 142.957 26.4336 143.832 26.4336C145.072 26.4336 146.133 26.6432 147.018 27.0625C147.911 27.4727 148.594 28.0332 149.068 28.7441C149.542 29.446 149.779 30.2389 149.779 31.123H146.484C146.484 30.7311 146.384 30.3665 146.184 30.0293C145.992 29.6829 145.701 29.4049 145.309 29.1953C144.917 28.9766 144.424 28.8672 143.832 28.8672C143.267 28.8672 142.798 28.9583 142.424 29.1406C142.059 29.3138 141.786 29.5417 141.604 29.8242C141.43 30.1068 141.344 30.4167 141.344 30.7539C141.344 31 141.389 31.2233 141.48 31.4238C141.581 31.6152 141.745 31.793 141.973 31.957C142.201 32.112 142.51 32.2578 142.902 32.3945C143.303 32.5312 143.805 32.6634 144.406 32.791C145.536 33.028 146.507 33.3333 147.318 33.707C148.139 34.0716 148.768 34.5456 149.205 35.1289C149.643 35.7031 149.861 36.4323 149.861 37.3164C149.861 37.9727 149.72 38.5742 149.438 39.1211C149.164 39.6589 148.763 40.1283 148.234 40.5293C147.706 40.9212 147.072 41.2266 146.334 41.4453C145.605 41.6641 144.785 41.7734 143.873 41.7734C142.533 41.7734 141.398 41.5365 140.469 41.0625C139.539 40.5794 138.833 39.9642 138.35 39.2168C137.876 38.4603 137.639 37.6764 137.639 36.8652H140.824C140.861 37.4759 141.029 37.9635 141.33 38.3281C141.64 38.6836 142.023 38.9434 142.479 39.1074C142.943 39.2624 143.422 39.3398 143.914 39.3398C144.507 39.3398 145.003 39.2624 145.404 39.1074C145.805 38.9434 146.111 38.7246 146.32 38.4512C146.53 38.1686 146.635 37.8496 146.635 37.4941ZM161.086 38.5332V31.4785C161.086 30.9499 160.99 30.4941 160.799 30.1113C160.607 29.7285 160.316 29.4323 159.924 29.2227C159.541 29.013 159.058 28.9082 158.475 28.9082C157.937 28.9082 157.472 28.9993 157.08 29.1816C156.688 29.3639 156.383 29.61 156.164 29.9199C155.945 30.2298 155.836 30.5807 155.836 30.9727H152.555C152.555 30.3893 152.696 29.8242 152.979 29.2773C153.261 28.7305 153.671 28.2428 154.209 27.8145C154.747 27.3861 155.389 27.0488 156.137 26.8027C156.884 26.5566 157.723 26.4336 158.652 26.4336C159.764 26.4336 160.749 26.6204 161.605 26.9941C162.471 27.3678 163.15 27.9329 163.643 28.6895C164.144 29.4368 164.395 30.3757 164.395 31.5059V38.082C164.395 38.7565 164.44 39.3626 164.531 39.9004C164.632 40.429 164.773 40.8893 164.955 41.2812V41.5H161.578C161.423 41.1445 161.3 40.6934 161.209 40.1465C161.127 39.5905 161.086 39.0527 161.086 38.5332ZM161.564 32.5039L161.592 34.541H159.227C158.616 34.541 158.078 34.6003 157.613 34.7188C157.148 34.8281 156.761 34.9922 156.451 35.2109C156.141 35.4297 155.909 35.694 155.754 36.0039C155.599 36.3138 155.521 36.6647 155.521 37.0566C155.521 37.4486 155.613 37.8086 155.795 38.1367C155.977 38.4557 156.242 38.7064 156.588 38.8887C156.943 39.071 157.372 39.1621 157.873 39.1621C158.548 39.1621 159.135 39.0254 159.637 38.752C160.147 38.4694 160.548 38.1276 160.84 37.7266C161.132 37.3164 161.286 36.929 161.305 36.5645L162.371 38.0273C162.262 38.401 162.075 38.8021 161.811 39.2305C161.546 39.6589 161.2 40.069 160.771 40.4609C160.352 40.8438 159.846 41.1582 159.254 41.4043C158.671 41.6504 157.996 41.7734 157.23 41.7734C156.264 41.7734 155.403 41.582 154.646 41.1992C153.89 40.8073 153.298 40.2832 152.869 39.627C152.441 38.9616 152.227 38.2096 152.227 37.3711C152.227 36.5872 152.372 35.8945 152.664 35.293C152.965 34.6823 153.402 34.1719 153.977 33.7617C154.56 33.3516 155.271 33.0417 156.109 32.832C156.948 32.6133 157.905 32.5039 158.98 32.5039H161.564ZM171.148 29.5508V47.1875H167.854V26.707H170.889L171.148 29.5508ZM180.787 33.9668V34.2539C180.787 35.3294 180.66 36.3275 180.404 37.248C180.158 38.1595 179.789 38.957 179.297 39.6406C178.814 40.3151 178.217 40.8392 177.506 41.2129C176.795 41.5866 175.975 41.7734 175.045 41.7734C174.124 41.7734 173.318 41.6048 172.625 41.2676C171.941 40.9212 171.363 40.4336 170.889 39.8047C170.415 39.1758 170.032 38.4375 169.74 37.5898C169.458 36.7331 169.257 35.7943 169.139 34.7734V33.666C169.257 32.5814 169.458 31.597 169.74 30.7129C170.032 29.8288 170.415 29.0677 170.889 28.4297C171.363 27.7917 171.941 27.2995 172.625 26.9531C173.309 26.6068 174.106 26.4336 175.018 26.4336C175.947 26.4336 176.772 26.6159 177.492 26.9805C178.212 27.3359 178.818 27.8464 179.311 28.5117C179.803 29.168 180.172 29.9609 180.418 30.8906C180.664 31.8112 180.787 32.8366 180.787 33.9668ZM177.492 34.2539V33.9668C177.492 33.2832 177.428 32.6497 177.301 32.0664C177.173 31.474 176.973 30.9544 176.699 30.5078C176.426 30.0612 176.075 29.7148 175.646 29.4688C175.227 29.2135 174.721 29.0859 174.129 29.0859C173.546 29.0859 173.044 29.1862 172.625 29.3867C172.206 29.5781 171.855 29.847 171.572 30.1934C171.29 30.5397 171.071 30.9453 170.916 31.4102C170.761 31.8659 170.652 32.3626 170.588 32.9004V35.5527C170.697 36.209 170.884 36.8105 171.148 37.3574C171.413 37.9043 171.786 38.3418 172.27 38.6699C172.762 38.9889 173.391 39.1484 174.156 39.1484C174.749 39.1484 175.255 39.0208 175.674 38.7656C176.093 38.5104 176.435 38.1595 176.699 37.7129C176.973 37.2572 177.173 36.7331 177.301 36.1406C177.428 35.5482 177.492 34.9193 177.492 34.2539ZM186.898 29.5508V47.1875H183.604V26.707H186.639L186.898 29.5508ZM196.537 33.9668V34.2539C196.537 35.3294 196.41 36.3275 196.154 37.248C195.908 38.1595 195.539 38.957 195.047 39.6406C194.564 40.3151 193.967 40.8392 193.256 41.2129C192.545 41.5866 191.725 41.7734 190.795 41.7734C189.874 41.7734 189.068 41.6048 188.375 41.2676C187.691 40.9212 187.113 40.4336 186.639 39.8047C186.165 39.1758 185.782 38.4375 185.49 37.5898C185.208 36.7331 185.007 35.7943 184.889 34.7734V33.666C185.007 32.5814 185.208 31.597 185.49 30.7129C185.782 29.8288 186.165 29.0677 186.639 28.4297C187.113 27.7917 187.691 27.2995 188.375 26.9531C189.059 26.6068 189.856 26.4336 190.768 26.4336C191.697 26.4336 192.522 26.6159 193.242 26.9805C193.962 27.3359 194.568 27.8464 195.061 28.5117C195.553 29.168 195.922 29.9609 196.168 30.8906C196.414 31.8112 196.537 32.8366 196.537 33.9668ZM193.242 34.2539V33.9668C193.242 33.2832 193.178 32.6497 193.051 32.0664C192.923 31.474 192.723 30.9544 192.449 30.5078C192.176 30.0612 191.825 29.7148 191.396 29.4688C190.977 29.2135 190.471 29.0859 189.879 29.0859C189.296 29.0859 188.794 29.1862 188.375 29.3867C187.956 29.5781 187.605 29.847 187.322 30.1934C187.04 30.5397 186.821 30.9453 186.666 31.4102C186.511 31.8659 186.402 32.3626 186.338 32.9004V35.5527C186.447 36.209 186.634 36.8105 186.898 37.3574C187.163 37.9043 187.536 38.3418 188.02 38.6699C188.512 38.9889 189.141 39.1484 189.906 39.1484C190.499 39.1484 191.005 39.0208 191.424 38.7656C191.843 38.5104 192.185 38.1595 192.449 37.7129C192.723 37.2572 192.923 36.7331 193.051 36.1406C193.178 35.5482 193.242 34.9193 193.242 34.2539Z" fill="white"/>
</svg>
